<svg width="1920" height="3517" viewBox="0 0 1920 3517" fill="none" xmlns="http://www.w3.org/2000/svg">
<g clip-path="url(#clip0_23_6326)">
<path d="M0 9.99996C0 4.47711 4.47715 0 10 0H1910C1915.52 0 1920 4.47715 1920 10V3517H0V9.99996Z" fill="#F9FBFC"/>
<g filter="url(#filter0_f_23_6326)">
<rect width="1920" height="682" fill="url(#paint0_linear_23_6326)"/>
</g>
<g filter="url(#filter1_f_23_6326)">
<rect x="-339" y="528" width="500" height="500" fill="url(#paint1_linear_23_6326)"/>
</g>
<g filter="url(#filter2_f_23_6326)">
<rect x="1770" y="2875" width="500" height="500" fill="url(#paint2_linear_23_6326)"/>
</g>
</g>
<defs>
<filter id="filter0_f_23_6326" x="-772.786" y="-772.786" width="3465.57" height="2227.57" filterUnits="userSpaceOnUse" color-interpolation-filters="sRGB">
<feFlood flood-opacity="0" result="BackgroundImageFix"/>
<feBlend mode="normal" in="SourceGraphic" in2="BackgroundImageFix" result="shape"/>
<feGaussianBlur stdDeviation="386.393" result="effect1_foregroundBlur_23_6326"/>
</filter>
<filter id="filter1_f_23_6326" x="-606.447" y="260.553" width="1034.89" height="1034.89" filterUnits="userSpaceOnUse" color-interpolation-filters="sRGB">
<feFlood flood-opacity="0" result="BackgroundImageFix"/>
<feBlend mode="normal" in="SourceGraphic" in2="BackgroundImageFix" result="shape"/>
<feGaussianBlur stdDeviation="133.724" result="effect1_foregroundBlur_23_6326"/>
</filter>
<filter id="filter2_f_23_6326" x="1502.55" y="2607.55" width="1034.89" height="1034.89" filterUnits="userSpaceOnUse" color-interpolation-filters="sRGB">
<feFlood flood-opacity="0" result="BackgroundImageFix"/>
<feBlend mode="normal" in="SourceGraphic" in2="BackgroundImageFix" result="shape"/>
<feGaussianBlur stdDeviation="133.724" result="effect1_foregroundBlur_23_6326"/>
</filter>
<linearGradient id="paint0_linear_23_6326" x1="244.667" y1="102.514" x2="1279.41" y2="365.699" gradientUnits="userSpaceOnUse">
<stop stop-color="#E0FFCC"/>
<stop offset="1" stop-color="#CCFFEC"/>
</linearGradient>
<linearGradient id="paint1_linear_23_6326" x1="-339" y1="778" x2="161" y2="778" gradientUnits="userSpaceOnUse">
<stop stop-color="#E0FFCC"/>
<stop offset="1" stop-color="#CCFFEC"/>
</linearGradient>
<linearGradient id="paint2_linear_23_6326" x1="1770" y1="3125" x2="2270" y2="3125" gradientUnits="userSpaceOnUse">
<stop stop-color="#E0FFCC"/>
<stop offset="1" stop-color="#CCFFEC"/>
</linearGradient>
<clipPath id="clip0_23_6326">
<path d="M0 9.99996C0 4.47711 4.47715 0 10 0H1910C1915.52 0 1920 4.47715 1920 10V3517H0V9.99996Z" fill="white"/>
</clipPath>
</defs>
</svg>
